<?xml version="1.0"?>
<svg xmlns="http://www.w3.org/2000/svg" viewBox="0 0 512 512" width="512px" height="512px"><g><g id="outline"><path d="M256,120a8,8,0,0,0,0-16,40,40,0,0,0,0,80,8,8,0,0,0,0-16,24,24,0,0,1,0-48Z" data-original="#000000" class="active-path" data-old_color="#000000" fill="#005A61"/><path d="M424,408H368a8,8,0,0,0-8,8v40a8,8,0,0,0,8,8h56a8,8,0,0,0,8-8V416A8,8,0,0,0,424,408Zm-8,40H376V424h40Z" data-original="#000000" class="active-path" data-old_color="#000000" fill="#005A61"/><path d="M336,144a80,80,0,1,0-80,80A80.091,80.091,0,0,0,336,144Zm-80,64a64,64,0,1,1,64-64A64.072,64.072,0,0,1,256,208Z" data-original="#000000" class="active-path" data-old_color="#000000" fill="#005A61"/><path d="M488,480H464s-.016-96.424-.032-96.634a5.562,5.562,0,0,0-1.3-3.782c-.03-.044-64.2-88.289-64.2-88.289A8,8,0,0,0,392,288H316.719l30.86-39.09A170.014,170.014,0,0,0,384,144a128,128,0,0,0-256,0,170.014,170.014,0,0,0,36.421,104.91l70.133,88.837-33.21,49.815A8,8,0,0,0,200,392v88H160V462.987A32.057,32.057,0,0,0,184,432V384a32,32,0,0,0-64,0v3.35A40,40,0,1,0,96,463.2V480H80a8,8,0,0,0,0,16H488a8,8,0,0,0,0-16Zm-144,0V392H448v88Zm3.927-176L371.2,336H350.982L327.71,304Zm32.146,72-17.454-24h20.217l17.454,24Zm40,0-17.454-24h20.216l17.455,24ZM307.927,304,331.2,336H312a8.159,8.159,0,0,0-.97.064L287.71,304Zm34.909,48,17.454,24H340.073l-17.454-24ZM411.2,336H390.982L367.71,304h20.216Zm-234.22-97A153.946,153.946,0,0,1,144,144a112,112,0,0,1,224,0,153.946,153.946,0,0,1-32.979,95l-38.262,48.465c-.138.175-.261.356-.383.539l-24.584.006c-.212.006-5.11,1.55-6.448,3.556l-21.457,32.185ZM216,394.422l35.022-52.533.032-.047,21.232-31.848L328,386.6V480H304V408a32,32,0,0,0-64,0v72H216ZM256,480V408a16,16,0,0,1,32,0v72ZM136,384a16,16,0,0,1,32,0v48a15.989,15.989,0,0,1-28.365,10.135,39.883,39.883,0,0,0-3.721-42.217,7.98,7.98,0,0,0,.086-1.111ZM80,424a24,24,0,1,1,24,24A24.028,24.028,0,0,1,80,424ZM112,463.2a39.888,39.888,0,0,0,17.536-8.433A32.283,32.283,0,0,0,144,462.953V480H112Z" data-original="#000000" class="active-path" data-old_color="#000000" fill="#005A61"/></g></g> </svg>
