<?xml version="1.0"?>
<svg xmlns="http://www.w3.org/2000/svg" viewBox="0 0 512 512" width="512px" height="512px" class=""><g><g id="outline"><path d="M384,272a111.863,111.863,0,0,0-15.982,1.275c.139-.432.339-.846.474-1.279A48,48,0,0,0,368.477,176,159.069,159.069,0,0,0,326.012,108.1,103.985,103.985,0,0,0,328,88V24a8,8,0,0,0-11.25-7.309L284.4,31.07a109.147,109.147,0,0,1-75.656,4.8,75.167,75.167,0,0,0-74.781,18.856,76.215,76.215,0,0,0-22.183,48.145A158.1,158.1,0,0,0,63.516,176,48,48,0,0,0,63.531,272,160.122,160.122,0,0,0,216,384a157.557,157.557,0,0,0,56.525-10.363C272.209,377.054,272,380.5,272,384A112,112,0,1,0,384,272ZM145.273,66.035A59.141,59.141,0,0,1,204.148,51.2a125.126,125.126,0,0,0,86.75-5.507L312,36.309V88a88.1,88.1,0,0,1-88,88H208a89.071,89.071,0,0,1-66.375-29.9,56.09,56.09,0,0,1-14.083-38.427,7.858,7.858,0,0,0,0-1.389A60.282,60.282,0,0,1,145.273,66.035ZM216,368A144.081,144.081,0,0,1,77.242,261.9a8,8,0,0,0-7.719-5.9H64a32,32,0,0,1,0-64h5.523a8.006,8.006,0,0,0,7.727-5.914,141.966,141.966,0,0,1,35.836-62.524A71.382,71.382,0,0,0,129.68,156.75,105.09,105.09,0,0,0,208,192h16a104.088,104.088,0,0,0,96.871-66.438,142.992,142.992,0,0,1,33.887,60.528,8,8,0,0,0,7.719,5.91H368a32,32,0,0,1,0,64h-5.523a7.994,7.994,0,0,0-7.727,5.938,137.653,137.653,0,0,1-5.278,15.567,112.336,112.336,0,0,0-73.48,77.306A141.225,141.225,0,0,1,216,368ZM384,480a96,96,0,1,1,96-96A96.107,96.107,0,0,1,384,480Z" data-original="#000000" class="active-path" data-old_color="#000000" fill="#005A61"/><path d="M444.648,345.488l-56-40a8,8,0,0,0-9.3,0l-56,40A8.012,8.012,0,0,0,320,352v18.379a100.607,100.607,0,0,0,50.586,87.168l9.445,5.4a7.983,7.983,0,0,0,7.117.407A100.268,100.268,0,0,0,448,371.074V352A8.012,8.012,0,0,0,444.648,345.488ZM432,371.074a84.287,84.287,0,0,1-47.586,75.949l-5.891-3.367A84.586,84.586,0,0,1,336,370.379V356.117l48-34.285,48,34.285Z" data-original="#000000" class="active-path" data-old_color="#000000" fill="#005A61"/><path d="M379.562,345.344l-24,16A8,8,0,0,0,352,368v11.156a61.778,61.778,0,0,0,27.562,51.5,8,8,0,0,0,8.876-13.312A45.808,45.808,0,0,1,368,379.156v-6.875l20.438-13.625a8,8,0,0,0-8.876-13.312Z" data-original="#000000" class="active-path" data-old_color="#000000" fill="#005A61"/><path d="M288.32,266.461a96,96,0,0,1-138.547,0,8,8,0,1,0-11.546,11.078,112,112,0,0,0,161.64,0,8,8,0,0,0-11.547-11.078Z" data-original="#000000" class="active-path" data-old_color="#000000" fill="#005A61"/><path d="M156.18,95.656a59.212,59.212,0,0,1,47.968-6.238l14.4,4.32a74.909,74.909,0,0,0,21.515,3.141,75.505,75.505,0,0,0,36.61-9.434l15.211-8.453a8,8,0,1,0-7.766-13.984l-15.211,8.453a59.492,59.492,0,0,1-45.765,4.949l-14.4-4.32a75.289,75.289,0,0,0-60.922,7.926,8,8,0,1,0,8.36,13.64Z" data-original="#000000" class="active-path" data-old_color="#000000" fill="#005A61"/><path d="M215.633,276.641H224a8,8,0,0,0,0-16h-8.367A7.631,7.631,0,0,1,211.4,246.66a8,8,0,0,0-8.875-13.32,23.636,23.636,0,0,0,13.11,43.3Z" data-original="#000000" class="active-path" data-old_color="#000000" fill="#005A61"/><path d="M69.656,202.344a8,8,0,0,0-11.312,0,30.652,30.652,0,0,0,0,43.312,8,8,0,0,0,11.312-11.312,14.646,14.646,0,0,1,0-20.688A8,8,0,0,0,69.656,202.344Z" data-original="#000000" class="active-path" data-old_color="#000000" fill="#005A61"/><path d="M362.344,245.656a8,8,0,0,0,11.312,0,30.652,30.652,0,0,0,0-43.312,8,8,0,0,0-11.312,11.312,14.646,14.646,0,0,1,0,20.688A8,8,0,0,0,362.344,245.656Z" data-original="#000000" class="active-path" data-old_color="#000000" fill="#005A61"/><circle cx="136" cy="216" r="16" data-original="#000000" class="active-path" data-old_color="#000000" fill="#005A61"/><circle cx="304" cy="216" r="16" data-original="#000000" class="active-path" data-old_color="#000000" fill="#005A61"/></g></g> </svg>
