<?xml version="1.0" encoding="UTF-8" standalone="no"?>
<!DOCTYPE svg PUBLIC "-//W3C//DTD SVG 1.1//EN" "http://www.w3.org/Graphics/SVG/1.1/DTD/svg11.dtd">
<svg width="100%" height="100%" viewBox="0 0 1400 1400" version="1.1" xmlns="http://www.w3.org/2000/svg" xmlns:xlink="http://www.w3.org/1999/xlink" xml:space="preserve" xmlns:serif="http://www.serif.com/" style="fill-rule:evenodd;clip-rule:evenodd;stroke-linejoin:round;stroke-miterlimit:2;">
    <g>
        <g>
            <path d="M1296.3,908.2C1267.1,851.6 1114,867.6 1167.9,664.4C1274.2,264.3 1108.7,251.2 921.5,380.3C865.1,419.2 794.6,466.8 722.9,441.3C692.4,430.4 668.4,406.9 646.8,383.6C477.8,200.9 305.1,168 189.3,210C47.4,261.4 -29.2,457.2 134.4,629.2C156.4,652.4 179.8,676.8 188.8,708.3C218.4,812.3 88.9,906.5 90.7,1020.2C95.6,1328.1 1498.1,1298.9 1296.3,908.2Z" style="fill-opacity:0.2;fill-rule:nonzero;"/>
            <g>
                <path d="M489.1,191.9C433.5,227.6 384.2,272.8 345.4,326.4C307.5,378.7 279.8,439.7 269.7,503.7C260,565.7 266,630.5 288.4,689.3C299.5,718.5 314.4,746.2 333.4,771.1C342.9,783.5 353.2,795.3 364.5,806.1C376.3,817.3 389.6,830.1 405.3,835.4C422.8,841.3 440.3,832.8 450.8,818.7C461.8,803.8 462.9,784.3 462.7,766.5C461.1,624.1 386,535.6 463,293.2C472.9,261.9 484.7,231.2 498.3,201.3C500.9,195.5 495.3,187.8 489.1,191.9Z" style="fill:rgb(239,191,55);fill-rule:nonzero;"/>
                <path d="M407.2,562.5C410.6,557.4 402.6,553.1 399.1,557.8C391,568.6 381.5,578.6 371.4,587.8C366,542.7 365.4,496.9 369.6,451.5C371.9,426.6 375.4,401.7 380.6,377.3C381.6,372.8 374.8,370.8 373.6,375.4C361.2,423.9 355,473.6 354.9,523.3C350.3,518.9 345.2,514.9 340.8,510.7C333.7,503.9 326.7,496.8 319.7,489.9C316.6,486.8 311.8,491.5 314.8,494.8C321.3,501.8 327.9,508.7 334.3,515.8C337.4,519.2 340.4,522.7 343.4,526.2C346.5,529.9 349.5,534.2 353.4,537.2C353.9,537.6 354.4,537.9 355,538C355.8,572.4 359.5,606.8 366.1,640.8C370.9,665.5 377.3,689.8 385.1,713.7C387.9,722.3 401.6,718.6 398.7,709.9C387,674.6 378.5,638.3 373.3,601.6C386.5,590.2 397.5,577.2 407.2,562.5Z" style="fill:rgb(229,146,0);fill-rule:nonzero;"/>
            </g>
            <g>
                <path d="M374.7,978.6C367,961.6 358.9,945.1 353.6,927.1C343.2,891.4 341.3,853.2 348.7,816.7C356.4,778.6 375.6,744.5 386.8,707.5C396.5,675.4 399.2,639.8 385.1,608.6C372,579.6 335.7,552.6 304.3,573.1C289.1,583 285.4,599.1 286.7,616.2C287.6,627.5 291.5,645.8 278.4,651.5C269.4,655.4 237.8,656.9 233.1,601.2C222.9,479.3 169.3,448.7 121,458.2C87.2,464.9 63.2,494.2 52.1,525.3C35.7,571.6 26.1,701.7 111,727.2C128.2,732.4 147.7,732.3 163.9,740.7C174.8,746.4 187.3,758.8 185.4,772.3C183.6,785.4 169.6,789.2 158.6,791.3C145.3,793.8 131.5,794.7 119.2,801C89.3,816.5 81,866 117.7,910.3C118.5,911.3 325.8,1098.1 336.1,1097.9C353.3,1097.6 368.5,1089.1 378.4,1075.2C387.4,1062.4 390.7,1045.6 389.8,1030.2C388.8,1012 382.1,995 374.7,978.6Z" style="fill:rgb(253,210,75);fill-rule:nonzero;"/>
                <path d="M324.6,986.9C320.8,971.4 314.9,956.2 310.2,940.9C305.6,925.8 301.2,910.7 296.9,895.5C288.3,864.9 280,834.1 271,803.6C269.9,799.9 268.8,796.3 267.7,792.6C294.9,765.4 312.6,728.5 315.3,690C315.7,684.8 307.2,683.6 306.1,688.8C299.2,721.6 284.8,751.8 262.8,776.7C248.2,730.4 231.1,684.7 207.2,642.5C191.8,615.3 174.1,588.7 151.8,566.6C148.6,563.5 142.7,567.7 145.4,571.5C161.6,594.3 177.2,617.6 190.3,642.4C192.9,647.3 195.4,652.3 197.9,657.3C197.5,657.1 197.1,656.8 196.6,656.6C189.1,652.5 181.2,649.3 173.3,646.1C165.4,643 157.3,640.1 149.1,637.6C141.7,635.3 132.8,631.7 125,632.8C122.3,633.2 122.7,636.6 124.3,637.9C127.3,640.2 131.3,641.1 134.8,642.4C138.7,643.8 142.6,645.2 146.5,646.7C154.1,649.6 161.5,652.9 168.7,656.7C175.8,660.4 182.6,664.5 189.5,668.5C195.4,671.9 201.7,677.3 208.2,679.9C214,692.9 219.4,706 224.5,719.3C241.6,763.9 254.6,809.9 267.2,855.9C262,854.8 256.2,855 251.2,854.6C242.8,853.8 234.3,853 225.9,852C209.1,850.1 192.3,847.9 175.6,845.7C170.9,845.1 170.1,852.7 174.5,853.8C191,858 207.5,861.3 224.3,864C232.6,865.3 240.9,866.6 249.3,867.6C255.8,868.4 264.2,870.9 270.9,869C273,876.6 275.1,884.2 277.2,891.8C281.8,908.5 286.5,925.2 291.5,941.9C296.7,959.1 301.3,977 308.8,993.4C313.1,1002.6 326.9,996 324.6,986.9Z" style="fill:rgb(229,146,0);fill-rule:nonzero;"/>
            </g>
            <g>
                <path d="M965.7,941.2C973.4,924.2 981.5,907.7 986.8,889.7C997.2,854 999.1,815.8 991.7,779.3C984,741.2 964.8,707.1 953.6,670.1C943.9,638 941.2,602.4 955.3,571.2C968.4,542.2 1004.7,515.2 1036.1,535.7C1051.3,545.6 1055,561.7 1053.7,578.8C1052.8,590.1 1048.9,608.4 1062,614.1C1071,618 1102.6,619.5 1107.3,563.8C1117.5,441.9 1171.1,411.3 1219.4,420.8C1253.2,427.5 1277.2,456.8 1288.3,487.9C1304.7,534.1 1314.4,664.2 1229.5,689.7C1212.3,694.9 1192.8,694.8 1176.6,703.2C1165.7,708.9 1153.2,721.3 1155.1,734.8C1156.9,747.9 1170.9,751.7 1181.9,753.8C1195.2,756.3 1209,757.2 1221.3,763.5C1251.2,779 1259.5,828.5 1222.8,872.8C1222,873.8 1014.7,1060.6 1004.4,1060.4C987.2,1060.1 972,1051.6 962.1,1037.7C953.1,1024.9 949.8,1008.1 950.7,992.7C951.6,974.6 958.2,957.6 965.7,941.2Z" style="fill:rgb(239,191,55);fill-rule:nonzero;"/>
                <path d="M1015.7,949.5C1019.5,934 1025.4,918.8 1030.1,903.5C1034.7,888.4 1039.1,873.3 1043.4,858.1C1052,827.5 1060.3,796.7 1069.3,766.2C1070.4,762.5 1071.5,758.9 1072.6,755.2C1045.4,728 1027.7,691.1 1025,652.6C1024.6,647.4 1033.1,646.2 1034.2,651.4C1041.1,684.2 1055.5,714.4 1077.5,739.3C1092.1,693 1109.2,647.3 1133.1,605.1C1148.5,577.9 1166.2,551.3 1188.5,529.2C1191.7,526.1 1197.6,530.3 1194.9,534.1C1178.7,556.9 1163.1,580.2 1150,605C1147.4,609.9 1144.9,614.9 1142.4,619.9C1142.8,619.7 1143.2,619.4 1143.7,619.2C1151.2,615.1 1159.1,611.9 1167,608.7C1174.9,605.6 1183,602.7 1191.2,600.2C1198.6,597.9 1207.5,594.3 1215.3,595.4C1218,595.8 1217.6,599.2 1216,600.5C1213,602.8 1209,603.7 1205.5,605C1201.6,606.4 1197.7,607.8 1193.8,609.3C1186.2,612.2 1178.8,615.5 1171.6,619.3C1164.5,623 1157.7,627.1 1150.8,631.1C1144.9,634.5 1138.6,639.9 1132.1,642.5C1126.3,655.5 1120.9,668.6 1115.8,681.9C1098.7,726.5 1085.7,772.5 1073.1,818.5C1078.3,817.4 1084.1,817.6 1089.1,817.2C1097.5,816.4 1106,815.6 1114.4,814.6C1131.2,812.7 1148,810.5 1164.7,808.3C1169.4,807.7 1170.2,815.3 1165.8,816.4C1149.3,820.6 1132.8,823.9 1116,826.6C1107.7,827.9 1099.4,829.2 1091,830.2C1084.5,831 1076.1,833.5 1069.4,831.6C1067.3,839.2 1065.2,846.8 1063.1,854.4C1058.5,871.1 1053.8,887.8 1048.8,904.5C1043.6,921.7 1039,939.6 1031.5,956C1027.2,965.1 1013.5,958.6 1015.7,949.5Z" style="fill:rgb(229,146,0);fill-rule:nonzero;"/>
            </g>
            <g>
                <path d="M1330.7,1041.2C1303.8,1009.1 1266.4,987 1226.1,976.3C1129.8,950.7 1033.1,985.4 946,1024.8C806.9,1087.7 590.8,1115.6 810.7,1190.4C851.7,1204.4 893.3,1195.8 932.7,1181C970.6,1166.7 1008.8,1146.9 1050.2,1146.1C1093.1,1145.2 1132.2,1166.1 1169,1185.8C1206.1,1205.6 1246.2,1229.1 1289.8,1228.1C1310.9,1227.6 1331.8,1220.5 1346.5,1204.9C1360.5,1190 1367.3,1170.2 1369.2,1150.2C1372.9,1110.6 1355.7,1071.1 1330.7,1041.2Z" style="fill:rgb(253,210,75);fill-rule:nonzero;"/>
                <path d="M1279.5,1125.2C1239.3,1096.9 1193.9,1077.2 1146.1,1066.4C1146.8,1066.1 1147.5,1065.7 1148.1,1065.4C1155.2,1062.1 1162.6,1059.2 1170,1056.7C1184.6,1051.8 1199.8,1047.9 1215,1045.2C1219,1044.5 1218.1,1037.9 1214,1038.1C1197.9,1038.9 1182.5,1041.5 1167.1,1046.2C1159.7,1048.5 1152.4,1051.2 1145.3,1054.2C1139.4,1056.7 1132.8,1059.2 1127.1,1062.6C1126,1062.4 1124.9,1062.2 1123.9,1062C1068,1052.7 1010.2,1054.9 955.2,1068.9C940,1072.8 925.1,1077.5 910.5,1083.2C902.9,1086.2 895.3,1089.4 887.8,1092.8C880.5,1096.2 873,1099.5 866.5,1104.4C863.9,1106.4 862.4,1109.4 863.8,1112.6C865,1115.4 868.5,1117.5 871.6,1116.4C884.5,1111.8 896.6,1104.6 909.3,1099.4C921.9,1094.3 934.7,1089.9 947.7,1086.2C973.8,1078.8 1000.5,1074.1 1027.6,1072.2C1028.3,1074.3 1029.3,1076.3 1030,1078.2C1032.1,1083.9 1034.5,1089.5 1037.2,1095C1042.5,1106.1 1048.9,1116.2 1056.3,1126.1C1059.3,1130.1 1065.8,1126.6 1063.1,1122.1C1057.1,1112.3 1051.7,1101.9 1046.8,1091.5C1044.4,1086.3 1042.1,1080.9 1040.1,1075.5C1039.7,1074.4 1039.3,1073.1 1038.9,1071.7C1090.2,1069.6 1142,1077 1190.5,1094.1C1219.6,1104.3 1248,1117.9 1273.9,1134.7C1279.9,1138.6 1285.2,1129.2 1279.5,1125.2Z" style="fill:rgb(229,146,0);fill-rule:nonzero;"/>
            </g>
            <g>
                <g>
                    <path d="M774.8,346.3C758.7,334.6 739.1,325.7 718.8,326.8C697.2,327.9 678.1,339.3 661.7,352.5C646.8,364.5 633.5,379.5 625.5,397C609.9,431.4 616.1,475.9 651.1,495.7C667.8,505.2 687.2,508.1 706,509.8C727.4,511.8 750.8,513.6 771.2,505.3C781.5,501.1 790.9,495 797.9,486.3C804.8,477.6 809.1,467.3 811.5,456.5C827.1,386.5 797.5,362.8 774.8,346.3Z" style="fill-rule:nonzero;"/>
                    <path d="M976.4,726.1C943.6,661.4 893.4,606.9 832.3,567.9C812.9,555.5 792.5,544.7 771.4,535.6C769.3,524.4 768.4,512.9 768.8,501.5C769.1,490.7 772.2,478.8 767.6,468.6C763.3,459 753.3,455 743.6,453.4C731.4,451.4 719,450.2 706.7,448.6C694.7,447.1 682.7,445 670.7,444.3C660.1,443.7 648.7,445.1 639.9,451.6C631.9,457.5 627,466 623.4,475.2C620,483.9 618.2,493.1 614.9,501.8C571.2,504.5 531.8,528.1 515.9,539.8C484.7,562.7 461.4,594.1 442.2,627.4C422.2,662.2 405.8,699 387.6,734.7C369.3,770.7 350.5,806.6 333.6,843.3C300.4,915.4 273.5,992.7 276.8,1073.2C277.5,1091.1 279.8,1109.2 287.4,1125.7C295.2,1142.6 309,1154.5 326.2,1161.1C344.5,1168.1 364.9,1169.7 384.2,1171.4C405.8,1173.3 427.5,1173.9 449.2,1173.6C536.6,1172.6 623.1,1157.4 710.4,1153.7C732.2,1152.8 754,1152.6 775.7,1153.4C796,1154.2 816.2,1156.1 836.5,1157C874.1,1158.6 914.5,1156 945.9,1132.9C975.1,1111.5 992.5,1078.5 1003.6,1044.8C1014.9,1010.4 1020.9,974.1 1022.4,937.9C1025.6,865 1009.5,791.3 976.4,726.1Z" style="fill:white;fill-rule:nonzero;"/>
                    <path d="M926,756C890,740 861,708 839,673C837,669 830,663 829,666C814,700 818,740 834,772C848,801 850,835 858,867C866,902 896,921 925,941C956.8,961.7 985,980.1 1015.8,998.9C1019.4,979.4 1021.6,959.6 1022.4,939.8C1024.4,893.5 1018.6,846.8 1005.7,802.3C999,797 992.4,791.2 985,786C967,772 946,765 926,756Z" style="fill:rgb(231,232,242);fill-rule:nonzero;"/>
                    <path d="M772.1,508.3C772,508.2 771.9,508.1 771.7,507.9C770.6,506.7 768.7,506.2 767.2,506.7C754.4,510.6 742.3,514.8 728.8,515.8C715.7,516.8 702.6,515.9 689.8,512.6C666.2,506.5 644.9,493.4 628.9,475.1C625.2,470.9 619.3,477 622.8,481.2C639.5,501.3 662.4,516.2 687.7,522.8C691.4,523.8 695.2,524.6 699,525.2C696.6,533.8 695.5,543 693.9,551.8C692,562.2 690.1,572.6 688.2,583C684.4,603.8 680.4,624.5 676.5,645.3C668.9,685.8 659.9,726.3 655.3,767.3C654,778.7 653.1,790.1 653,801.5C652.9,813.4 652.8,825.5 656.3,837C658,842.4 665.4,841.1 665.8,835.7C666.6,825.4 665.5,815.1 665.5,804.8C665.5,794.7 665.9,784.7 666.7,774.6C668.3,754.1 671.4,733.8 674.6,713.5C681.1,672.3 688,631.2 695.1,590.1C697.1,578.9 699.1,567.6 701,556.4C702.7,546.5 705.2,536.3 705.9,526.2C713.7,527 721.6,527.1 729.4,526.4C743.2,525.1 758.5,522.2 770.6,515.2C771.9,514.4 773,512.8 772.9,511.2C773.1,510.1 772.9,509.2 772.1,508.3Z" style="fill:rgb(188,190,226);fill-rule:nonzero;"/>
                    <g>
                        <path d="M721,606C718.9,613.5 722.6,622.8 731.3,623.1C739.7,623.4 747.6,614.2 748.9,606.5C751.5,591.6 726.9,584.9 721,606ZM738,608.8C736.7,610.8 732.6,615.9 730.1,613.1C728.2,610.9 729.8,606.7 731.1,604.7C732.3,602.9 733.8,601.6 735.6,600.4C735.7,600.5 735.8,600.5 735.9,600.6C740,602.5 740.6,604.8 738,608.8Z" style="fill:rgb(188,190,226);fill-rule:nonzero;"/>
                        <path d="M711.6,697.6C713.4,706.3 722.6,710.5 730.6,707.2C738.7,703.8 742.9,693.8 741.2,685.4C736.4,661.2 707.9,679.9 711.6,697.6ZM724.2,682.9C724.3,683 724.3,683 724.4,683.1C724.3,683.1 724.1,683.2 724,683.2C724.1,683.1 724.2,683 724.2,682.9ZM726.9,698.3C722.9,700 720.5,696.7 720.9,692.9C721.3,689.4 723.8,686.7 726.2,684.2C727.4,684.6 728.8,684.4 729.6,683.7C730.8,684.5 731.7,685.7 732,688C732.5,691.7 730.6,696.8 726.9,698.3Z" style="fill:rgb(188,190,226);fill-rule:nonzero;"/>
                        <path d="M725.1,741.3C720.9,738.7 702.4,737.4 700.2,758.8C699.1,768.9 706,777.6 716.7,776.4C727,775.3 732.9,765.2 732.3,755.4C731.8,750 729.8,744.3 725.1,741.3ZM716.3,764.6C707.4,767.4 713.4,751 714.2,751.2C715.8,751.6 717.2,751.2 718.1,750.3C719.4,751.4 720.3,752.9 720.5,755.4C720.8,758.6 719.9,763.5 716.3,764.6Z" style="fill:rgb(188,190,226);fill-rule:nonzero;"/>
                        <path d="M609.2,747.1C606.8,755.6 612.4,765.4 621.1,767.4C629.5,769.4 638.7,763.7 640.7,755.3C645.1,737.1 614.9,726.9 609.2,747.1ZM631.8,753.5C630.6,757.1 626.2,759.4 622.6,758C619.1,756.6 617,752.2 618.7,748.7C620.4,745.3 624.1,744.9 627.3,743.8C630.6,745.7 632.9,749.8 631.8,753.5Z" style="fill:rgb(188,190,226);fill-rule:nonzero;"/>
                        <path d="M620.4,684.2C617.5,694.6 623.3,707.8 635.6,707.4C646.9,707 651.5,692.8 650.7,683.3C649.4,665.6 625.5,666.2 620.4,684.2ZM641,687.5C640.4,690.5 639.6,696.2 636,697.1C632.1,698 630,693.3 629.8,690.3C629.7,688 630.2,685.7 631.2,683.6C631.6,682.8 632,682 632.6,681.3C633.1,680.6 634,681 633.7,680.4C635.5,682.6 639.4,681.9 639.9,679.4C640.4,679.7 640.7,680.2 641,680.8C641.9,682.8 641.4,685.5 641,687.5Z" style="fill:rgb(188,190,226);fill-rule:nonzero;"/>
                        <path d="M644.2,606.8C646.2,614.2 655,617.2 661.6,614.2C668.3,611.1 672.3,602.7 670,595.6C664.4,578.9 641.4,596.2 644.2,606.8ZM660.3,603.3C659,605.5 656.3,607.3 653.9,605.6C650.6,603.2 667.3,591.4 660.3,603.3Z" style="fill:rgb(188,190,226);fill-rule:nonzero;"/>
                    </g>
                    <path d="M1056.6,923.8C1041.8,882 1005.8,852.5 970,828.9C932.8,804.4 891,782 865.9,743.7C841.8,706.8 835.5,659.8 849.1,617.9C853,606 857.6,593.8 855.7,581.1C854.2,571.3 848.2,561.6 839,557.3C829.8,553 819.2,555.4 812,562.3C805.2,568.9 801.3,578.5 799.4,587.7C794.9,608.8 795.2,630.9 793.7,652.4C792.3,672.7 790,693.9 780.7,712.3C760.8,751.8 711.8,763.8 670.8,763.8C649.4,763.8 627.4,759.3 609.8,746.4C593.1,734.1 582.9,714.9 577.4,695.3C570.8,671.7 570.9,647 572,622.7C572.6,609.1 573.5,595.6 573.8,582C574,569.6 568.2,530.7 565.4,518.5C561.5,501.4 523.6,519.9 524.6,533.7C527.2,570.9 527.5,608.6 516.3,644.2C504.3,682.7 482.9,718.3 454,746.4C438.4,761.5 420.7,773.5 402,784.4C381.4,796.3 360.2,807.5 342.1,823.1C308.7,851.9 290.3,893.5 277.8,934.9C250.3,1025.5 239.1,1089.6 273.1,1139.8C357.7,1265 905.8,1304.6 1022.8,1108.3C1047.2,1067.4 1073.6,971.8 1056.6,923.8Z" style="fill:rgb(251,67,31);fill-rule:nonzero;"/>
                    <path d="M1056.6,923.8C1041.8,882 1005.8,852.5 970,828.9C960.7,822.8 951.1,816.8 941.5,810.6C967.2,843.5 985,877.3 991,919C1002,997 982,1092 905,1121C873,1133 835,1121 803,1142C790,1150 781,1162 776,1176C772,1187 767,1199 758,1203C711,1227 654,1219 602,1221C594,1221 587,1219 580,1214C563,1199 551,1180 529,1173C496,1163 464,1177 430,1172C368,1164 317,1115 300,1056C293,1032 294,1007 291,981C286,945 292,910 303,877C304,873.9 304.9,870.8 305.9,867.6C293.7,888.6 284.8,911.8 277.8,934.9C250.3,1025.5 239.1,1089.6 273.1,1139.8C357.7,1265 905.8,1304.6 1022.8,1108.3C1047.2,1067.4 1073.6,971.8 1056.6,923.8Z" style="fill:rgb(234,45,19);fill-rule:nonzero;"/>
                    <path d="M754.3,323.1C710.7,310.9 668.4,310.4 644.5,349.3C624,382.8 631.8,426.4 655.1,456.3C666.4,470.8 681.8,481.9 700.4,484.1C719.3,486.3 737.9,478.2 752,466.1C770.7,450.4 840.6,347.3 754.3,323.1Z" style="fill:rgb(255,161,139);fill-rule:nonzero;"/>
                    <g>
                        <path d="M724.5,369.6C719.4,376.3 716.4,385.3 713.1,393C710.4,399.4 707.8,406.2 710.4,413.1C711.5,416 713.5,418.3 715.6,420.6C716.8,421.9 719.2,423.7 719,425.7C718.6,429 713.9,429.8 711.4,430C707.3,430.3 703.3,428.9 700.3,432.5C698.9,434.3 698.3,436.5 699.5,438.5C703.8,446.1 718.1,442.6 723.7,438.2C729.9,433.3 731.8,425 727.4,418.2C725.7,415.6 723.2,413.6 721.3,411.1C718.8,407.7 719.8,403.9 721.1,400.1C724.3,391 729.7,381.9 731.1,372.2C731.8,368.2 727.1,366.2 724.5,369.6Z" style="fill:rgb(183,65,42);fill-rule:nonzero;"/>
                    </g>
                    <g>
                        <path d="M679.8,449.4C685.9,456.4 692.5,462.4 701.9,464.3C710.5,466.1 722.5,466.5 729.7,460.6C733.8,457.2 730.3,450.4 725.5,450.4C722,450.4 718.6,451.8 715.1,452.3C711.7,452.7 708.1,452.7 704.7,452.2C697.9,451.2 689.6,449.7 684,445.3C681.1,442.9 677.3,446.5 679.8,449.4Z" style="fill:rgb(183,65,42);fill-rule:nonzero;"/>
                    </g>
                    <g>
                        <path d="M680.7,380.4C682.2,378.6 685.2,377.6 687.4,379.1C689.7,380.7 688.4,384.2 690,386.3C691.4,388.1 694.1,389.5 696.3,387.9C702.9,383.2 697.8,373.4 692,370.5C685.9,367.4 678.6,370.4 675.7,376.5C674.2,379.6 678.2,383.5 680.7,380.4Z" style="fill:rgb(183,65,42);fill-rule:nonzero;"/>
                    </g>
                    <g>
                        <path d="M741.2,394.1C745.5,397.7 751.1,395 755,394C753.6,394.4 754.7,392 754.5,394C754.6,393.2 754.6,396.1 754.6,395.7C754.5,399 753.5,402 754.8,405.2C755.8,407.8 757.5,409.7 760.4,410.1C762.8,410.4 766.1,409.3 767.2,406.9C770.6,399.4 770.1,387.5 762.5,382.6C758.9,380.3 754.3,380.3 750.4,381.7C746.4,383.1 741.6,385.7 740.1,389.9C739.6,391.1 740.1,393.1 741.2,394.1Z" style="fill:rgb(183,65,42);fill-rule:nonzero;"/>
                    </g>
                    <g>
                        <path d="M644.8,410.9C644.4,424.3 658.6,431.4 669.6,424.1C699.2,404.6 646,368.1 644.8,410.9Z" style="fill:rgb(255,91,59);fill-rule:nonzero;"/>
                        <path d="M770.8,434C769.8,420.6 744.1,419.5 739.5,433C737.4,439 739.8,445.5 744.8,449.2C749.6,452.7 756.1,453.5 761.4,450.5C766.8,447.3 771.3,440.3 770.8,434Z" style="fill:rgb(255,91,59);fill-rule:nonzero;"/>
                    </g>
                    <path d="M822.8,363.8C822.1,349.6 820.6,334.9 813.6,322.2C806.9,310 795.2,301.5 783,295.4C769.7,288.8 755.4,283.7 741,280C725.9,276.1 710.5,274.7 695,276.9C680.9,278.9 667.3,283.6 654.6,290C629.2,302.9 607.6,322.9 590.6,345.6C573.9,367.8 560.7,394.5 555.2,421.8C552.3,436.2 552.4,452 560.2,464.8C567.3,476.5 579.7,482.8 592.7,485.8C599.3,487.3 606.1,488.2 612.9,489C620.2,489.8 627.8,489.8 634.4,486.1C647.6,478.8 648.6,462.4 645.8,449.2C644.3,442 642.1,435.1 641.1,427.8C640.1,420.7 639.9,413.5 640.4,406.4C641.3,392.7 645.6,379.1 653.5,367.8C660.4,357.8 670.8,349.4 682.2,345.2C694.8,340.6 707.5,341 720,345.7C747.7,356 767.5,381.1 796.8,388.2C820.1,394.1 823.9,386.1 822.8,363.8Z" style="fill-rule:nonzero;"/>
                    <path d="M797.3,178.1C787.1,161.8 764.7,159.3 748.6,167.8C746.5,168.9 744.5,170.1 742.6,171.5C740.1,167.7 737,164.3 733.3,161.7C719.1,151.6 700.7,154 689.7,166.3C686.5,164.3 683.2,162.6 679.8,161.2C670.3,157.4 658.9,156.5 649.7,161.8C641.5,166.6 636.2,175.3 633.3,184.1C627.1,203.3 631.7,224.9 647.4,238.1C655.1,244.6 665.3,247.8 675,247.3L675,253.1C675,264.6 674.9,276.1 674.9,287.5C674.9,291 677.2,294.6 681,294.8C707.4,295.7 733.8,295.6 760.1,296.4C763.2,296.5 766,294.4 766.3,291.2C767.3,280.2 768.4,269.2 769.4,258.3C769.8,254.5 770.1,250.7 770.4,246.9C779.2,246.3 786.8,241.9 792.1,234.6C797.5,227.1 800,217.8 801.5,208.8C803.3,198.5 803,187.2 797.3,178.1Z" style="fill:white;fill-rule:nonzero;"/>
                    <path d="M774,224C767,223 759,216 758,206C751,213 742,215 732,214C723,212 715,207 714,198C698,207 687,224 670,232C657.4,237.2 645.7,232.9 636.5,224.5C639.2,229.6 642.9,234.2 647.5,238.1C655.2,244.6 665.4,247.8 675.1,247.3L675.1,256.6C683.5,253.4 692.3,252.6 700,255C712,258 725,262 737,259C748.8,256.4 758.9,261.1 768.7,266.6C769,263.8 769.2,261 769.5,258.3C769.9,254.5 770.2,250.7 770.5,246.9C779.3,246.3 786.9,241.9 792.2,234.6C796.4,228.7 798.9,221.7 800.5,214.6C793.2,221.3 783.4,225.1 774,224Z" style="fill:rgb(231,232,242);fill-rule:nonzero;"/>
                    <path d="M771.5,243.6C766.8,242.7 762.2,242.4 758,240C753.8,237.6 750.7,233.9 748.6,229.5C747.7,227.5 744.7,226.9 742.9,228C732,234.7 717.2,231.7 708.7,222.5C706.9,220.5 703.6,221.2 702.3,223.3C698.8,229.1 693.8,233.6 687.8,236.6C684.9,238 681.8,239 678.7,239.6C675.6,240.2 672.6,239.7 670.9,242.8C670.4,243.7 670.3,245 670.9,245.9C671,246.1 671.1,246.2 671.2,246.4C672,247.6 673.3,248.5 674.8,248.5C687.3,247.9 698.9,241.5 706.5,231.7C716.7,240.1 730.9,241.8 743.2,237C748.9,246.2 760.8,254.2 771.5,249.9C774.1,248.8 775,244.3 771.5,243.6Z" style="fill:rgb(188,190,226);fill-rule:nonzero;"/>
                    <path d="M797.9,943.3C797.1,932.5 795.8,921.6 794.1,910.9C792.6,901.1 791.2,891.2 787.6,882C788.2,881.3 788.8,880.6 789.4,879.8C794.4,873.2 797.6,865 797.9,856.7C798,852.8 797.4,848.7 796,845C795.3,843.2 794.4,841.5 793.3,840C791.1,836.9 789.4,835.7 785.6,835.6C761.9,835.1 738.1,836.2 714.3,835.5C690,834.8 665.7,833.1 641.7,829.2C619.8,825.7 597,817.4 574.7,822.2C556.5,826.1 539.9,840.8 541.7,860.8C542.1,865.5 543.5,870.1 546.1,874C547.2,875.6 548.6,876.8 550.2,877.7C544.4,894.5 540,911.9 536,929.3C533.8,938.8 531.9,948.4 530,958C528.6,965.5 527.2,973.1 527.1,980.8C527,996.2 533.5,1010 547.6,1017C554.4,1020.4 561.8,1022.3 569.2,1023.7C578.1,1025.4 587.1,1026.9 596.2,1028.1C634.4,1033.2 672.9,1035.8 711.4,1035.8C730.2,1035.8 749.3,1035.7 768,1033.8C775.8,1033 783.8,1031.2 789.3,1025.1C794.5,1019.4 796.5,1012.1 797.4,1004.6C800.1,984.3 799.5,963.5 797.9,943.3ZM554,848.6C558.4,838.8 568.8,833.8 578.8,831.9C591.4,829.6 604.4,832.5 616.7,835.1C643,840.7 669.7,844 696.5,845.5C725.6,847.1 754.7,846.8 783.9,846.6C787.6,855 785,864.4 779.4,871.6C771.3,881.9 758.2,885.4 745.6,886.1C729.7,887 713.5,885.1 697.6,884C680.9,882.8 664.3,881.7 647.6,880.5C590.5,876.5 594,878.7 562.7,870.7C560.7,870.2 556.4,869.7 555.1,868.8C553.6,867.8 552.8,864.4 552.4,862.8C551.3,858.1 552.1,852.9 554,848.6ZM785,986.3C784.7,993.6 784.8,1001.4 782.9,1008.5C781.3,1014.7 777.7,1018.1 771.5,1019.4C763.9,1021 755.6,1020.8 747.9,1021.1C739.1,1021.5 730.3,1021.8 721.5,1021.9C685.8,1022.4 650,1020.7 614.4,1016.8C598.1,1015 581.4,1013.5 565.3,1010.1C552.2,1007.3 540.3,1001.3 537.8,986.9C536.5,979.2 537.5,971.1 538.6,963.5C540.1,953.6 541.9,943.7 543.9,933.8C547.6,915.7 552.3,897.8 556.8,879.9C558.8,880.4 560.9,880.8 562.9,881.2C608.9,892.5 589.9,889.5 662.5,894.5C686.5,896.2 710.6,898.6 734.6,899.4C749.1,899.9 764.8,898.3 777.2,890.8C778,896.6 779.3,902.3 780.2,908.1C781.6,916.8 782.7,925.6 783.5,934.5C785.2,951.7 785.6,969 785,986.3Z" style="fill:rgb(216,34,9);fill-rule:nonzero;"/>
                    <g>
                        <path d="M548.7,731.1C543.3,726.5 536.4,724.5 529.3,725.3C502.6,728.5 496.2,759.7 516.5,769.3C527.5,774.5 542.6,771.5 550.8,762.5C559.3,753.2 558.3,739.3 548.7,731.1Z" style="fill:rgb(216,34,9);fill-rule:nonzero;"/>
                        <path d="M825.8,748.7C801.5,726.7 766.3,759.8 792.7,779.7C802.3,786.9 816.4,785.8 825.4,778.2C834.8,770.4 834.7,756.8 825.8,748.7Z" style="fill:rgb(216,34,9);fill-rule:nonzero;"/>
                    </g>
                </g>
                <path d="M766.3,881.6C763.4,865.5 758.8,849.8 750.7,835.6C743.9,823.7 733.7,810.3 720.1,806.2C716.3,805 712.2,809.8 714.7,813.3C715.1,813.8 715.5,814.3 715.8,814.9L687.2,852.7C685.5,851.4 683,851.2 681.5,853C679.5,855.6 677.1,858 675.3,860.8C673.2,863.9 672.2,867.3 671.3,870.9C669.5,878 668.4,885.3 668.1,892.7C667.5,907.4 669.4,922.1 672.7,936.4C678.6,961.8 688.6,992 713.8,1004.2C725.8,1010 739.5,1010.7 751.6,1004.7C764.7,998.3 770.4,985.7 771.7,971.7C774.6,942 771.5,910.7 766.3,881.6Z" style="fill:rgb(188,190,226);fill-rule:nonzero;"/>
                <path d="M908,835.3C882,838.1 856.2,841.6 830.5,846.3C832.5,843.5 834.7,841 837.8,839.3C842.9,836.5 848.5,836.7 854,838.3C857.1,839.2 860.7,836.7 860.5,833.3C860,822.5 852.5,814.3 842.7,810.6C831.6,806.4 819.2,810.1 809.3,815.6C798.7,821.5 789.7,830.1 778.8,835.5C767.4,841.2 754,841.7 741.6,843.7C733,845.1 724.9,847.9 718.2,853C718.1,850.9 718,848.9 717.9,846.8C717.7,842.5 711.6,842.6 711.2,846.8C710.2,857.9 709.4,869.2 710.1,880.4C710.7,890.8 711.9,901.1 713.7,911.4L713.6,911.4C711.1,911.4 708.6,911.9 706.1,911.9C702.7,912 701,916.9 704.3,918.6C708.6,920.7 712.1,922.9 716.9,923.8C721.5,924.7 726.1,925.5 730.7,926.3C739.5,927.7 748.5,928.8 757.4,929.4C775.5,930.6 793.9,929.8 811.7,926.2C841,920.2 868.8,905.8 889.1,883.6C900.1,871.6 908.4,857.6 913.1,841.9C913.9,838.9 911.4,834.9 908,835.3Z" style="fill:rgb(255,161,139);fill-rule:nonzero;"/>
                <path d="M837.8,839.4C842.9,836.6 848.5,836.8 854,838.4C857.1,839.3 860.7,836.8 860.5,833.4C860,822.6 852.5,814.4 842.7,810.7C831.6,806.5 819.2,810.2 809.3,815.7C798.7,821.6 789.7,830.2 778.8,835.6C767.4,841.3 754,841.8 741.6,843.8C733,845.2 724.9,848 718.2,853.1C718.1,851 718,849 717.9,846.9C717.7,842.6 711.6,842.7 711.2,846.9C710.2,858 709.4,869.3 710.1,880.5C710.7,890.9 711.9,901.2 713.7,911.5L713.6,911.5C711.1,911.5 708.6,912 706.1,912C702.7,912.1 701,917 704.3,918.7C708.6,920.8 712.1,923 716.9,923.9C721.5,924.8 726.1,925.6 730.7,926.4C739.5,927.8 748.5,928.9 757.4,929.5C761.4,929.8 765.4,929.9 769.4,930C769.7,917.3 773.6,905.5 785,897.1C808,882.1 837,891.1 855,876.1C871.6,862.3 888.1,844.7 907.7,835.4C881.8,838.2 856.1,841.7 830.5,846.4C832.4,843.5 834.7,841 837.8,839.4Z" style="fill:rgb(244,140,120);fill-rule:nonzero;"/>
                <path d="M750.6,994.3C729.9,935.8 722.3,873.5 728.4,811.8C728.9,806.5 722.4,801.5 717.4,803.4C657.1,826.5 596.8,849.7 536.4,872.9C523.1,878 508.9,884.4 494.4,883.4C484.1,882.7 473.3,877.1 470.4,866.7C468.8,860.9 469.4,854.7 470.4,848.8C471.8,840.7 473.6,832.6 475.2,824.6C478.4,809 481.5,793.5 484.6,777.9C511,644.7 512.3,595.4 512.3,595.4C511.4,578.5 504.2,561.4 489.5,552C473.3,541.6 453.5,545 437.3,553.5C420.5,562.4 407.2,576.4 394.6,590.4C343.6,647.3 307.5,715.4 277.6,785.2C262.5,820.6 248.7,856.5 235.2,892.5C222.4,926.6 210.4,968.9 234.6,1001.1C254,1026.8 287.1,1034.2 317.8,1035.5C334.9,1036.2 351.8,1034.9 368.8,1033.6C391.4,1031.9 414,1030.3 436.6,1028.6C527,1021.9 617.4,1015.4 707.8,1008.6C719.1,1007.7 730.4,1006.9 741.7,1006C747.3,1005.5 752.8,1000.3 750.6,994.3Z" style="fill:white;fill-rule:nonzero;"/>
                <path d="M730.6,912.7C707.6,932.7 678,945.4 648,949C605,954 563,947 520,943C482,939 439,939 413,972C355,994 287,964 262,908C255,892.1 250.1,875.4 248.2,858.4C243.8,869.8 239.5,881.1 235.2,892.5C222.4,926.6 210.4,968.9 234.6,1001.1C254,1026.8 287.1,1034.2 317.8,1035.5C334.9,1036.2 351.8,1034.9 368.8,1033.6C391.4,1031.9 414,1030.3 436.6,1028.6C527,1021.9 617.4,1015.4 707.8,1008.6C719.1,1007.7 730.4,1006.9 741.7,1006C747.2,1005.6 752.6,1000.4 750.5,994.4C741.2,967.8 734.5,940.4 730.6,912.7Z" style="fill:rgb(231,232,242);fill-rule:nonzero;"/>
                <path d="M1286.7,492.9C1233,474.5 1174.6,473.7 1120.9,493C1105.9,498.4 1090.6,505.2 1079.1,516.6L1083.1,549C1087.6,557.1 1098.4,559.4 1106.7,561.7C1122.4,566.1 1138.9,568.2 1155.2,568.2C1187.7,568.1 1220.3,559.1 1248.4,543C1264.3,533.9 1278.6,522.2 1290.7,508.4C1295.6,503 1293.5,495.2 1286.7,492.9Z" style="fill:rgb(188,190,226);fill-rule:nonzero;"/>
                <path d="M1237,532.5C1234.8,525 1232.9,517.4 1231.4,509.7C1228.5,494.2 1227.5,478.3 1228,462.5C1228.5,447.6 1230.5,432.1 1225.4,417.7C1221.2,405.8 1212.5,395 1199.8,391.8C1183.8,387.9 1168.2,396.2 1156.1,405.9C1151.4,409.6 1147.2,413.7 1143.4,418C1139.9,410.7 1136.2,403.5 1131.9,396.9C1124.4,385.2 1113.6,374.4 1099.4,371.8C1085.5,369.2 1069.6,373.4 1062.8,386.9C1060.8,390.9 1062.5,395.4 1066.8,396.9C1077.9,400.5 1087.4,408.8 1092.1,419.6C1097.6,432.1 1097.4,446.4 1102.5,459.1C1112.5,483.8 1134.7,506.6 1130.6,535.1C1130.6,535.2 1156.3,560.8 1165.1,565.3C1177.6,571.7 1192.5,576 1206.5,576.6C1220.3,577.1 1235.5,570.4 1239.3,556C1241.5,548 1239.3,540.1 1237,532.5Z" style="fill:rgb(255,161,139);fill-rule:nonzero;"/>
                <path d="M1237,532.5C1234.8,525 1232.9,517.4 1231.4,509.7C1228.5,494.2 1227.5,478.3 1228,462.5C1228.2,455.6 1228.7,448.7 1228.8,441.7C1221.8,457.4 1215.2,474 1198,484C1185,491 1179,508 1162,511C1146,513.9 1133.3,506.6 1122.4,496.5C1128.4,508.5 1132.7,521.1 1130.7,535C1130.7,535.1 1156.4,560.7 1165.2,565.2C1177.7,571.6 1192.6,575.9 1206.6,576.5C1220.4,577 1235.6,570.3 1239.4,555.9C1241.5,548 1239.3,540.1 1237,532.5Z" style="fill:rgb(244,140,120);fill-rule:nonzero;"/>
                <path d="M1283.2,489.6C1220.7,509.9 1153.2,531.8 1087.2,515.9C1082,514.6 1076.7,517.5 1075.1,522.8C1066,553.2 1066.7,586.7 1077.5,616.6C1083.1,632.2 1091.4,646.3 1101.1,659.7C1110.8,673.1 1121.4,685.9 1129.7,700.2C1136.5,712 1142.2,725.6 1142.6,739.5C1104.3,727.3 1074.1,698.5 1045.5,671.1C1012.9,639.8 978.7,607.6 933.7,595.9C909.5,589.6 884.8,590.4 862,601.2C861,601.7 890.5,760.6 919.5,785.7C940.8,804.2 965.5,819.5 989.2,834.7C1014,850.5 1039.4,865.5 1065.3,879.5C1089.9,892.8 1115.3,907 1142.8,913.3C1168.2,919.1 1193.8,916.6 1217,904.7C1238.4,893.8 1256.2,875.9 1268.6,855.4C1298,806.9 1296.3,747.1 1289.7,692.9C1282.2,631.2 1267.4,563.4 1294.2,504.1C1297.5,496.8 1292.1,486.7 1283.2,489.6Z" style="fill:white;fill-rule:nonzero;"/>
                <path d="M1275,732C1281,770 1266,805 1239,830C1206,861 1148,863 1112,831C1089,812 1060,825 1034,818C1015,813 1002,798 985,786C967,772 946,765 926,756C915,751.1 904.7,744.7 895,737.3C902.7,759.9 911.1,778.3 919.5,785.6C940.8,804.1 965.5,819.4 989.2,834.6C1014,850.4 1039.4,865.4 1065.3,879.4C1089.9,892.7 1115.3,906.9 1142.8,913.2C1168.2,919 1193.8,916.5 1217,904.6C1238.4,893.7 1256.2,875.8 1268.6,855.3C1298,806.8 1296.3,747 1289.7,692.8C1288.5,682.5 1287,672.1 1285.6,661.6C1274.5,682.3 1270.8,708.1 1275,732Z" style="fill:rgb(231,232,242);fill-rule:nonzero;"/>
                <g>
                    <path d="M1051.1,812.9C1040.3,778.1 1025.5,744.6 1006.5,713.5C990.1,686.5 969.6,657 938.7,645.6C905.6,633.4 871.3,652 845.6,671.8C821.1,690.6 800.5,714.4 785.4,741.4C777.1,756.3 770.3,772.1 765.5,788.5C760.7,804.9 757.1,823 760.1,840.1C760.2,840.6 1052,816 1051.1,812.9Z" style="fill:rgb(155,160,209);fill-rule:nonzero;"/>
                    <path d="M1006.5,713.5C1002.6,707.1 998.5,700.5 994,694.1C993.6,694.7 993.3,695.3 993,696C986,722 1009,764 975,770C949,775 935,790 923,811C917,821 903,820 892,817C865,811 835,796 811,815C799,824 791,839 775,837C769.8,836.4 764.6,835.7 759.4,834.8C759.6,836.5 759.8,838.3 760.1,840C760.2,840.6 1052,816 1051.1,812.9C1040.3,778.1 1025.4,744.6 1006.5,713.5Z" style="fill:rgb(132,139,193);fill-rule:nonzero;"/>
                    <path d="M1087.9,810.8C1024.2,809.7 961.5,820.7 898.5,828.5L764.3,835.3C761.2,835 758.1,834.8 755,834.4C748.3,833.7 741.4,832.2 734.7,832.8C731.2,833.1 728.8,838.3 732.7,840.2C742.8,845 755.2,845.5 766.1,846.7C777.5,847.9 789,848.4 800.4,849.2C823.4,850.7 846.5,849.1 869.4,847.1C916.1,843 962.4,835.5 1009,830.9C1035.2,828.3 1061.5,826.7 1087.9,827.3C1098.4,827.4 1098.4,811 1087.9,810.8Z" style="fill:rgb(61,73,123);fill-rule:nonzero;"/>
                    <path d="M907.7,634.9C896.2,623.7 877.2,632.6 880.2,649.8C882,660.3 894.9,666.6 904.2,661.2C913.1,656 915.3,642.2 907.7,634.9Z" style="fill:rgb(61,73,123);fill-rule:nonzero;"/>
                </g>
            </g>
        </g>
    </g>
</svg>
