<?xml version="1.0" encoding="UTF-8" standalone="no"?>
<!DOCTYPE svg PUBLIC "-//W3C//DTD SVG 1.1//EN" "http://www.w3.org/Graphics/SVG/1.1/DTD/svg11.dtd">
<svg width="100%" height="100%" viewBox="0 0 500 211" version="1.1" xmlns="http://www.w3.org/2000/svg" xmlns:xlink="http://www.w3.org/1999/xlink" xml:space="preserve" xmlns:serif="http://www.serif.com/" style="fill-rule:evenodd;clip-rule:evenodd;stroke-linejoin:round;stroke-miterlimit:2;">
    <g transform="matrix(1,0,0,1,-601.039,-5152.57)">
        <g id="Artboard1" transform="matrix(0.295844,0,0,0.163082,599.155,4400.21)">
            <rect x="6.37" y="4613.4" width="1690.08" height="1288.69" style="fill:none;"/>
            <g transform="matrix(2.23758,0,0,4.05915,-1398.87,-1458.09)">
                <g transform="matrix(436.852,0,0,436.852,611.42,1806.74)">
                    <path d="M0.076,-0.518C0.065,-0.518 0.057,-0.533 0.052,-0.564C0.05,-0.577 0.049,-0.591 0.049,-0.606C0.049,-0.621 0.051,-0.637 0.054,-0.654C0.06,-0.685 0.07,-0.7 0.084,-0.7L0.454,-0.7C0.495,-0.7 0.521,-0.663 0.533,-0.589C0.536,-0.573 0.537,-0.561 0.537,-0.554L0.303,-0.199L0.488,-0.199C0.503,-0.199 0.513,-0.183 0.519,-0.151C0.522,-0.136 0.523,-0.12 0.523,-0.103C0.523,-0.086 0.521,-0.069 0.517,-0.05C0.51,-0.017 0.498,0 0.483,0L0.094,0C0.088,0 0.077,-0.02 0.062,-0.061C0.046,-0.101 0.038,-0.126 0.038,-0.136C0.038,-0.146 0.039,-0.152 0.041,-0.155L0.275,-0.518L0.076,-0.518Z" style="fill:rgb(248,240,227);fill-rule:nonzero;"/>
                </g>
                <g transform="matrix(436.852,0,0,436.852,846.01,1807.17)">
                    <path d="M0.347,0.01C0.254,0.01 0.178,-0.021 0.119,-0.082C0.059,-0.143 0.03,-0.233 0.03,-0.351C0.03,-0.468 0.06,-0.557 0.12,-0.618C0.179,-0.679 0.256,-0.709 0.351,-0.709C0.445,-0.709 0.521,-0.679 0.579,-0.62C0.637,-0.56 0.666,-0.47 0.666,-0.349C0.666,-0.228 0.636,-0.138 0.577,-0.079C0.518,-0.02 0.441,0.01 0.347,0.01ZM0.348,-0.517C0.316,-0.517 0.289,-0.502 0.268,-0.473C0.246,-0.444 0.235,-0.403 0.235,-0.35C0.235,-0.297 0.245,-0.256 0.266,-0.228C0.287,-0.199 0.314,-0.185 0.348,-0.185C0.381,-0.185 0.409,-0.199 0.43,-0.228C0.451,-0.257 0.461,-0.298 0.461,-0.351C0.461,-0.404 0.45,-0.445 0.429,-0.474C0.407,-0.503 0.38,-0.517 0.348,-0.517Z" style="fill:rgb(248,240,227);fill-rule:nonzero;"/>
                </g>
                <g transform="matrix(436.852,0,0,436.852,1150.06,1807.17)">
                    <path d="M0.336,-0.709C0.385,-0.709 0.428,-0.702 0.465,-0.689C0.502,-0.675 0.52,-0.656 0.52,-0.633C0.52,-0.61 0.511,-0.581 0.494,-0.547C0.476,-0.512 0.461,-0.495 0.449,-0.495C0.446,-0.495 0.442,-0.497 0.438,-0.501C0.433,-0.504 0.423,-0.508 0.408,-0.513C0.392,-0.517 0.378,-0.519 0.367,-0.519C0.328,-0.519 0.297,-0.505 0.274,-0.478C0.25,-0.451 0.238,-0.409 0.238,-0.353C0.238,-0.296 0.25,-0.254 0.275,-0.227C0.299,-0.2 0.33,-0.186 0.367,-0.186C0.382,-0.186 0.4,-0.188 0.419,-0.193C0.438,-0.197 0.451,-0.203 0.459,-0.211C0.46,-0.212 0.463,-0.213 0.467,-0.213C0.471,-0.213 0.478,-0.206 0.49,-0.191C0.501,-0.175 0.511,-0.156 0.52,-0.132C0.529,-0.107 0.534,-0.088 0.534,-0.075C0.534,-0.049 0.514,-0.028 0.474,-0.013C0.434,0.002 0.387,0.01 0.332,0.01C0.244,0.01 0.172,-0.021 0.115,-0.083C0.058,-0.145 0.03,-0.233 0.03,-0.346C0.03,-0.459 0.059,-0.547 0.118,-0.612C0.176,-0.677 0.249,-0.709 0.336,-0.709Z" style="fill:rgb(248,240,227);fill-rule:nonzero;"/>
                </g>
                <g transform="matrix(1,0,0,0.866859,-2134.5,-2899.38)">
                    <path d="M3053,5237.15L3216,5237.15L3216,5132L3054,5132L3053,5237.15Z" style="fill:rgb(248,240,227);"/>
                </g>
            </g>
        </g>
    </g>
</svg>
