<?xml version="1.0" encoding="UTF-8" standalone="no"?>
<!DOCTYPE svg PUBLIC "-//W3C//DTD SVG 1.1//EN" "http://www.w3.org/Graphics/SVG/1.1/DTD/svg11.dtd">
<svg width="100%" height="100%" viewBox="0 0 512 512" version="1.1" xmlns="http://www.w3.org/2000/svg" xmlns:xlink="http://www.w3.org/1999/xlink" xml:space="preserve" xmlns:serif="http://www.serif.com/" style="fill-rule:evenodd;clip-rule:evenodd;stroke-linejoin:round;stroke-miterlimit:2;">
    <g id="outline">
        <path d="M271,296C271,291.611 267.389,288 263,288C258.611,288 255,291.611 255,296C255,300.994 253.11,303.154 249.979,306.732C246.19,311.062 241,316.994 241,328C241,339.006 246.19,344.938 249.979,349.268C253.11,352.846 255,355.006 255,360C255,364.389 258.611,368 263,368C267.389,368 271,364.389 271,360C271,348.994 265.81,343.062 262.021,338.732C258.89,335.154 257,332.994 257,328C257,323.006 258.89,320.846 262.021,317.268C265.81,312.938 271,307.006 271,296Z" style="fill:rgb(0,90,97);fill-rule:nonzero;"/>
        <path d="M319,296C319,291.611 315.389,288 311,288C306.611,288 303,291.611 303,296C303,300.994 301.11,303.154 297.979,306.732C294.19,311.062 289,316.994 289,328C289,339.006 294.19,344.938 297.979,349.268C301.11,352.846 303,355.006 303,360C303,364.389 306.611,368 311,368C315.389,368 319,364.389 319,360C319,348.994 313.81,343.062 310.021,338.732C306.89,335.154 305,332.994 305,328C305,323.006 306.89,320.846 310.021,317.268C313.81,312.938 319,307.006 319,296Z" style="fill:rgb(0,90,97);fill-rule:nonzero;"/>
        <path d="M223,296C223,291.611 219.389,288 215,288C210.611,288 207,291.611 207,296C207,300.994 205.11,303.154 201.979,306.732C198.19,311.062 193,316.994 193,328C193,339.006 198.19,344.938 201.979,349.268C205.11,352.846 207,355.006 207,360C207,364.389 210.611,368 215,368C219.389,368 223,364.389 223,360C223,348.994 217.81,343.062 214.021,338.732C210.89,335.154 209,332.994 209,328C209,323.006 210.89,320.846 214.021,317.268C217.81,312.938 223,307.006 223,296Z" style="fill:rgb(0,90,97);fill-rule:nonzero;"/>
        <path d="M440,144L72,144C67.611,144 64,147.611 64,152L64,440C64,444.389 67.611,448 72,448L440,448C444.389,448 448,444.389 448,440L448,152C448,147.611 444.389,144 440,144ZM432,432L80,432L80,160L432,160L432,432Z" style="fill:rgb(0,90,97);fill-rule:nonzero;"/>
        <path d="M452,16L60,16C35.872,16.027 16.027,35.872 16,60L16,452C16.027,476.128 35.872,495.973 60,496L452,496C476.128,495.973 495.973,476.128 496,452L496,60C495.973,35.872 476.128,16.027 452,16ZM32,60C32.018,44.646 44.646,32.018 60,32L452,32C467.354,32.018 479.982,44.646 480,60L480,96L32,96L32,60ZM452,480L60,480C44.646,479.982 32.018,467.354 32,452L32,112L480,112L480,452C479.982,467.354 467.354,479.982 452,480Z" style="fill:rgb(0,90,97);fill-rule:nonzero;"/>
        <path d="M312,40L200,40C195.611,40 192,43.611 192,48L192,80C192,84.389 195.611,88 200,88L312,88C316.389,88 320,84.389 320,80L320,48C320,43.611 316.389,40 312,40ZM304,72L208,72L208,56L304,56L304,72Z" style="fill:rgb(0,90,97);fill-rule:nonzero;"/>
        <path d="M120,256L392,256C405.162,255.995 415.99,245.162 415.99,232C415.99,221.858 409.561,212.761 400,209.376L400,184C400,179.611 396.389,176 392,176L360,176C355.611,176 352,179.611 352,184L352,208L160,208L160,184C160,179.611 156.389,176 152,176L120,176C115.611,176 112,179.611 112,184L112,209.376C102.439,212.761 96.01,221.858 96.01,232C96.01,245.162 106.838,255.995 120,256ZM368,192L384,192L384,208L368,208L368,192ZM128,192L144,192L144,208L128,208L128,192ZM120,224L392,224C396.389,224 400,227.611 400,232C400,236.389 396.389,240 392,240L120,240C115.611,240 112,236.389 112,232C112,227.611 115.611,224 120,224Z" style="fill:rgb(0,90,97);fill-rule:nonzero;"/>
        <path d="M152,40C138.834,40 128,50.834 128,64C128,77.166 138.834,88 152,88C165.166,88 176,77.166 176,64C175.985,50.84 165.16,40.015 152,40ZM152,72C147.611,72 144,68.389 144,64C144,59.611 147.611,56 152,56C156.389,56 160,59.611 160,64C159.995,68.387 156.387,71.995 152,72Z" style="fill:rgb(0,90,97);fill-rule:nonzero;"/>
        <path d="M88,40C74.834,40 64,50.834 64,64C64,77.166 74.834,88 88,88C101.166,88 112,77.166 112,64C111.985,50.84 101.16,40.015 88,40ZM88,72C83.611,72 80,68.389 80,64C80,59.611 83.611,56 88,56C92.389,56 96,59.611 96,64C95.995,68.387 92.387,71.995 88,72Z" style="fill:rgb(0,90,97);fill-rule:nonzero;"/>
        <path d="M424,40C410.834,40 400,50.834 400,64C400,77.166 410.834,88 424,88C437.166,88 448,77.166 448,64C447.985,50.84 437.16,40.015 424,40ZM424,72C419.611,72 416,68.389 416,64C416,59.611 419.611,56 424,56C428.389,56 432,59.611 432,64C431.995,68.387 428.387,71.995 424,72Z" style="fill:rgb(0,90,97);fill-rule:nonzero;"/>
        <path d="M360,40C346.834,40 336,50.834 336,64C336,77.166 346.834,88 360,88C373.166,88 384,77.166 384,64C383.985,50.84 373.16,40.015 360,40ZM360,72C355.611,72 352,68.389 352,64C352,59.611 355.611,56 360,56C364.389,56 368,59.611 368,64C367.995,68.387 364.387,71.995 360,72Z" style="fill:rgb(0,90,97);fill-rule:nonzero;"/>
        <path d="M328,400L184,400C179.611,400 176,403.611 176,408C176,412.389 179.611,416 184,416L328,416C332.389,416 336,412.389 336,408C336,403.611 332.389,400 328,400Z" style="fill:rgb(0,90,97);fill-rule:nonzero;"/>
        <path d="M368,400L360,400C355.611,400 352,403.611 352,408C352,412.389 355.611,416 360,416L368,416C372.389,416 376,412.389 376,408C376,403.611 372.389,400 368,400Z" style="fill:rgb(0,90,97);fill-rule:nonzero;"/>
    </g>
</svg>
