<?xml version="1.0"?>
<svg xmlns="http://www.w3.org/2000/svg" id="Capa_1" enable-background="new 0 0 512 512" height="512px" viewBox="0 0 512 512" width="512px"><g><g><path d="m496.601 351.316c8.491 0 15.399-6.908 15.399-15.399v-26.856c0-8.491-6.908-15.399-15.399-15.399h-14.778v-100.449c0-4.116-3.336-7.451-7.451-7.451s-7.451 3.336-7.451 7.451v8.823l-1.597 1.992h-35.474v-10.815c0-4.116-3.336-7.451-7.451-7.451s-7.451 3.336-7.451 7.451v16.922l-22.337 18.204c-13.886 11.316-29.591 20.08-46.304 26.005-22.083-9.03-40.008-27.079-48.402-50.377l-26.053-72.324v-68.197c0-8.491-6.908-15.399-15.399-15.399h-33.16c-8.491 0-15.399 6.908-15.399 15.399v23.751h-80.224v-23.751c0-8.491-6.908-15.399-15.399-15.399h-33.16c-8.491 0-15.399 6.908-15.399 15.399v89.125c-13.919 14.254-30.345 25.259-48.836 32.702-4.849 1.184-8.931 5.616-6.79 10.763 1.169 2.907 3.963 4.673 6.915 4.673 1.662.103 3.897-1.015 5.438-1.61 15.882-6.393 30.379-15.17 43.273-26.156v120.719h-48.31c-8.494 0-15.402 6.908-15.402 15.399v26.856c0 8.491 6.908 15.399 15.399 15.399h48.31v22.214c-4.631-1.751-9.041-4.119-13.13-7.088-6.184-4.492-14.475-4.5-20.63-.023-5.287 3.844-11.135 6.708-17.384 8.513-7.398 2.137-12.565 9.003-12.565 16.695v54.939c0 9.587 7.8 17.386 17.386 17.386h31.14c4.115 0 7.451-3.336 7.451-7.451 0-4.116-3.336-7.451-7.451-7.451h-31.14c-1.369 0-2.484-1.114-2.484-2.484v-54.939c0-1.094.74-2.072 1.799-2.379 7.915-2.286 15.321-5.912 22.013-10.777.931-.677 2.151-.665 3.109.029 12.197 8.858 26.627 13.54 41.729 13.54s29.532-4.681 41.73-13.54c.957-.695 2.193-.695 3.149 0 12.197 8.858 26.627 13.54 41.729 13.54 13.485 0 26.429-3.743 37.732-10.848v18.474c0 4.303 2.685 8.215 6.68 9.733 8.065 3.067 16.558 4.622 25.244 4.622 8.735 0 17.272-1.571 25.376-4.67 3.983-1.525 6.659-5.434 6.659-9.727v-9.204c9.569-2.08 18.692-6.145 26.646-11.921.957-.695 2.193-.695 3.149 0 12.197 8.858 26.627 13.54 41.729 13.54s29.532-4.681 41.729-13.54c.957-.695 2.193-.695 3.149 0 12.197 8.858 26.627 13.54 41.729 13.54 13.168 0 25.823-3.561 36.935-10.345v12.466c0 4.116 3.336 7.451 7.451 7.451s7.451-3.336 7.451-7.451v-11.208c4.281 2.405 8.797 4.362 13.503 5.836 1.06.332 1.773 1.286 1.773 2.372v55.405c0 1.37-1.114 2.484-2.484 2.484h-409.262c-4.115 0-7.451 3.336-7.451 7.451 0 4.116 3.336 7.451 7.451 7.451h409.265c9.587 0 17.386-7.8 17.386-17.386v-55.405c0-7.637-4.912-14.305-12.222-16.594-5.796-1.815-11.233-4.549-16.161-8.129-.579-.421-1.182-.788-1.794-1.13v-13.993h14.778zm0-42.752c.274 0 .497.223.497.497v26.856c0 .274-.223.497-.497.497h-14.778v-27.849h14.778zm-224.749 27.85v-27.849h195.068v27.849zm195.067-110.554v33.697h-33.612c8.972-5.803 17.076-13.074 23.965-21.665zm-51.973 67.802h-143.094v-16.933c7.439.986 14.97 1.491 22.469 1.491 17.637 0 35.094-2.775 51.73-8.078 10.325 3.553 21.317 5.477 32.619 5.477 12.613 0 24.873-2.321 36.277-6.71v24.753zm14.903 0v-19.202h37.07v19.202zm15.796-65.092c-4.662 5.815-9.977 10.921-15.796 15.255v-24.894h23.525zm-43.621 11.321 12.922-10.531v23.355c-11.191 5.214-23.522 8.001-36.278 8.001-2.799 0-5.572-.153-8.319-.422 11.227-5.586 21.867-12.41 31.675-20.403zm-118.14-30.872c7.804 21.66 22.635 39.441 41.343 51.17-10.128 2.061-20.483 3.127-30.907 3.127-7.505 0-15.044-.552-22.469-1.633v-86.06zm-75.992-106.919v18.628h-80.224v-18.628zm-80.224 191.562v-39.012h80.224v39.012zm80.224-53.915h-80.224v-18.628h80.224zm-80.224-33.531v-47.637l17.354 31.473c3.071 5.57 6.471 10.968 10.147 16.164zm-49.056-142.77c0-.274.223-.497.497-.497h33.16c.274 0 .497.223.497.497v230.215h-34.154zm0 313.47v-25.6h34.154v17.633c-8.785 5.369-18.796 8.188-29.214 8.188-1.659 0-3.306-.079-4.94-.221zm124.521-10.474c-9.635 6.996-21.037 10.695-32.973 10.695-11.935 0-23.337-3.698-32.972-10.695-2.859-2.076-6.172-3.179-9.52-3.335v-11.791h80.224v12.671c-1.684.566-3.286 1.386-4.759 2.455zm53.816 30.015c-5.516 1.768-11.265 2.661-17.132 2.661-5.826 0-11.537-.883-17.022-2.627v-57.945c0-4.116-3.336-7.451-7.451-7.451-3.374 0-6.22 2.243-7.138 5.319h-192.807c-.274 0-.497-.223-.497-.497v-26.856c0-.274.223-.497.497-.497h194.241c1.367 1.625 3.413 2.66 5.703 2.66 4.115 0 7.451-3.336 7.451-7.451v-123.599c0-4.116-3.336-7.451-7.451-7.451s-7.451 3.336-7.451 7.451v26.042h-34.014c-5.947-7.276-11.261-15.118-15.806-23.359l-26.04-47.226h75.86v7.566c0 4.116 3.336 7.451 7.451 7.451s7.451-3.336 7.451-7.451v-79.751c0-.274.223-.497.497-.497h33.16c.274 0 .497.223.497.497v333.011zm119.4-30.015c-9.635 6.996-21.037 10.695-32.973 10.695s-23.338-3.698-32.973-10.695c-6.179-4.487-14.483-4.489-20.663 0-5.402 3.923-11.489 6.836-17.889 8.624v-23.75h143.095v23.787c-6.398-1.772-12.453-4.681-17.934-8.661-6.179-4.487-14.483-4.489-20.663 0zm90.57-2.157c-1.383.54-2.717 1.253-3.962 2.158-9.635 6.996-21.037 10.695-32.973 10.695-.045 0-.09-.002-.135-.003v-25.818h37.07z" data-original="#000000" class="active-path" data-old_color="#000000" fill="#F9C4D4"/></g></g> </svg>
