<?xml version="1.0" encoding="UTF-8" standalone="no"?>
<!DOCTYPE svg PUBLIC "-//W3C//DTD SVG 1.1//EN" "http://www.w3.org/Graphics/SVG/1.1/DTD/svg11.dtd">
<svg width="100%" height="100%" viewBox="0 0 512 512" version="1.1" xmlns="http://www.w3.org/2000/svg" xmlns:xlink="http://www.w3.org/1999/xlink" xml:space="preserve" xmlns:serif="http://www.serif.com/" style="fill-rule:evenodd;clip-rule:evenodd;stroke-linejoin:round;stroke-miterlimit:2;">
    <g transform="matrix(3.07136,0,0,3.07136,510.791,140.898)">
        <path d="M0,74.847C-9.829,64.123 -27.842,55.578 -49.58,51.302L-41.52,7.503L-35.134,8.386C-34.747,8.436 -34.339,8.336 -34.022,8.096C-33.702,7.855 -33.494,7.497 -33.441,7.104L-32.421,-0.343C-32.307,-1.168 -32.881,-1.924 -33.702,-2.036L-63.439,-6.18C-64.234,-6.275 -65.018,-5.72 -65.132,-4.899L-66.153,2.49C-66.268,3.311 -65.692,4.068 -64.874,4.182L-58.553,5.063L-62.886,49.249C-75.492,47.735 -90.481,47.735 -103.088,49.249L-107.42,5.063L-101.1,4.182C-100.278,4.068 -99.706,3.311 -99.82,2.49L-100.844,-4.899C-100.956,-5.723 -101.736,-6.301 -102.537,-6.18L-132.271,-2.036C-133.092,-1.924 -133.667,-1.168 -133.553,-0.343L-132.532,7.104C-132.479,7.497 -132.271,7.855 -131.951,8.096C-131.637,8.336 -131.232,8.436 -130.839,8.386L-124.454,7.503L-116.393,51.302C-138.061,55.564 -156.053,64.085 -165.912,74.785C-166.378,75.293 -166.44,76.055 -166.059,76.63C-165.683,77.208 -164.956,77.452 -164.305,77.22C-153.038,73.234 -138.269,70.13 -121.462,68.203L-126.002,79.065C-126.196,79.529 -126.146,80.059 -125.868,80.479C-125.589,80.895 -125.12,81.148 -124.618,81.148L-94.582,81.148C-94.077,81.148 -93.608,80.895 -93.329,80.476C-93.051,80.056 -93.004,79.523 -93.2,79.059L-98.544,66.446C-93.76,66.232 -88.645,66.13 -82.987,66.13C-77.328,66.13 -72.213,66.232 -67.429,66.446L-72.773,79.059C-72.97,79.523 -72.923,80.056 -72.645,80.476C-72.365,80.895 -71.896,81.148 -71.392,81.148L-41.355,81.148C-40.854,81.148 -40.385,80.895 -40.105,80.479C-39.827,80.059 -39.777,79.529 -39.971,79.065L-44.515,68.203C-27.751,70.121 -12.959,73.245 -1.61,77.276C-0.962,77.502 -0.24,77.264 0.144,76.692C0.525,76.117 0.464,75.354 0,74.847" style="fill:rgb(249,196,212);fill-rule:nonzero;"/>
    </g>
</svg>
